<svg width="1067" height="246" viewBox="0 0 1067 246" fill="none" xmlns="http://www.w3.org/2000/svg">
<g clip-path="url(#clip0_18_58)">
<path d="M67.5725 0.0109816C68.5792 0.252575 69.5708 0.603986 70.5881 0.710141C74.3846 1.11645 78.1884 1.45322 81.9921 1.79731C85.0289 2.07185 88.0701 2.2988 91.1035 2.57334C94.8671 2.91743 98.6273 3.30544 102.391 3.64587C105.424 3.92041 108.465 4.12539 111.499 4.40359C115.117 4.7367 118.728 5.12106 122.347 5.46514C124.011 5.62255 125.686 5.71408 127.349 5.86414C132.519 6.33998 137.685 6.85613 142.855 7.30637C146.193 7.59559 149.547 7.74565 152.889 8.04213C156.394 8.35327 159.89 8.8035 163.395 9.12202C166.501 9.40385 169.622 9.53563 172.728 9.82479C176.293 10.1543 179.846 10.6228 183.409 10.9596C186.563 11.2561 189.727 11.4281 192.88 11.7063C196.466 12.0248 200.048 12.4128 203.634 12.7496C205.36 12.9106 207.089 13.0058 208.814 13.1669C212.44 13.5109 216.059 13.8953 219.684 14.2284C221.243 14.3712 222.805 14.4187 224.367 14.5103C223.066 15.7695 221.77 17.0287 220.469 18.2879C219.913 18.621 219.307 18.8882 218.812 19.2946C202.987 32.3553 187.177 45.4306 171.363 58.5022C142.727 82.1746 114.097 105.847 85.4613 129.512C84.9345 129.948 84.3786 130.34 83.6597 130.882C83.5943 129.871 83.6049 129.201 83.5032 128.546C82.8094 124.15 82.0391 119.768 81.3888 115.365C80.5458 109.655 79.8268 103.929 78.9911 98.2189C78.3878 94.1079 77.647 90.0153 77.0292 85.9049C76.1974 80.3626 75.4454 74.8064 74.6242 69.2607C73.9997 65.0547 73.2835 60.8632 72.6735 56.6538C72.1249 52.8944 71.7109 49.1167 71.1512 45.3611C70.4937 40.9685 69.6982 36.6014 69.044 32.2088C68.434 28.1054 67.9614 23.9763 67.3731 19.8693C66.5994 14.448 65.7709 9.03413 64.9643 3.61659C64.8665 2.41228 64.7643 1.20431 64.6665 0C65.6363 0 66.6027 0 67.5725 0V0.0109816Z" fill="#EA0A2A"/>
<path d="M63.5804 245.972C63.2312 245.47 62.7625 245.017 62.5446 244.464C41.9351 191.474 21.3436 138.477 0.744755 85.4805C0.526777 84.9203 0.250674 84.3858 0 83.8368C0 83.5919 0 83.3498 0 83.1049C0.374194 82.7387 0.79925 82.4094 1.11895 81.9996C10.0705 70.4214 19.0112 58.8353 27.9591 47.2538C40.0641 31.5904 52.1764 15.9344 64.2814 0.27478C64.3323 1.42784 64.3831 2.57724 64.434 3.7303C64.3105 25.8581 64.1798 47.9895 64.0669 70.1172C63.7764 127.727 63.4966 185.339 63.2239 242.948C63.2239 243.578 63.4312 244.211 63.544 244.841C63.5547 245.218 63.5697 245.595 63.5804 245.972Z" fill="#58585A"/>
<path d="M64.2824 0.273688C64.2349 0.182176 64.2421 0.0943237 64.3041 0.0101318C64.4242 0.0101318 64.5477 0.0101318 64.6678 0.0101318C64.7661 1.21444 64.8678 2.42241 64.9661 3.62671C64.7913 3.65966 64.6131 3.6926 64.4388 3.72555C64.3874 2.57249 64.3332 1.42675 64.2824 0.273688Z" fill="#C0C1C1"/>
<path d="M220.473 18.295C221.774 17.0358 223.071 15.7766 224.372 14.5173C224.681 14.8651 225.047 15.1762 225.287 15.5642C247.099 51.0309 268.901 86.5087 290.702 121.982C290.891 122.29 291.08 122.601 291.36 123.063C288.602 126.09 285.841 129.135 283.062 132.166C255.935 161.776 228.804 191.382 201.662 220.977C201.237 221.442 200.666 221.772 200.161 222.164C198.941 220.703 197.72 219.242 196.499 217.782C196.144 217.05 195.911 216.219 195.421 215.593C175.159 189.838 154.877 164.1 134.594 138.36C130.612 133.305 126.634 128.246 122.602 123.125C123.016 122.642 123.346 122.221 123.713 121.829C137.98 106.63 152.25 91.432 166.524 76.241C184.209 57.4186 201.905 38.5998 219.583 19.7702C219.968 19.3602 220.183 18.7891 220.473 18.295Z" fill="#6D6E71"/>
<path d="M196.502 217.783C197.722 219.243 198.943 220.704 200.164 222.164C194.457 223.156 188.749 224.133 183.045 225.144C177.269 226.169 171.5 227.253 165.72 228.263C159.66 229.324 153.586 230.32 147.523 231.363C142.505 232.227 137.496 233.124 132.482 233.999C127.679 234.833 122.877 235.654 118.074 236.488C113.133 237.352 108.192 238.226 103.255 239.098C97.9037 240.046 92.5486 240.987 87.2013 241.949C79.8083 243.282 72.4225 244.636 65.0295 245.961C64.5608 246.045 64.0664 245.969 63.5832 245.969C63.5726 245.591 63.5614 245.211 63.5508 244.834C64.0591 241.887 64.4737 238.922 65.0949 235.997C66.8641 227.651 68.764 219.331 70.522 210.981C72.1533 203.24 73.6431 195.468 75.2308 187.715C76.5313 181.383 77.8642 175.057 79.2234 168.739C80.9233 160.825 82.6311 152.911 84.4327 145.019C84.5964 144.301 85.3556 143.475 86.0421 143.167C94.4346 139.43 102.877 135.82 111.266 132.072C112.552 131.497 113.228 131.698 114.165 132.672C128.744 147.812 143.363 162.915 157.978 178.015C170.813 191.273 183.663 204.528 196.502 217.783Z" fill="#404041"/>
<path d="M1066.99 99.2756C1066.52 101.443 1065.98 103.599 1065.58 105.781C1062.94 120.196 1056.11 132.286 1045.59 142.309C1036.94 150.552 1026.76 156.043 1015.2 158.81C1011.64 159.663 1007.94 159.989 1004.29 160.381C1001.67 160.663 999.008 160.867 996.388 160.732C989.991 160.395 983.718 159.279 977.673 157.035C956.898 149.311 942.792 134.97 935.457 113.892C933.563 108.456 932.681 102.855 932.167 97.1197C931.362 88.1407 932.603 79.4251 935.552 71.0572C942.747 50.6349 956.445 36.3845 976.634 28.7011C982.623 26.4243 988.802 25.1321 995.282 24.8942C1003.56 24.5904 1011.69 25.1761 1019.55 27.7311C1038.46 33.8734 1052.23 46.0885 1060.77 64.1641C1063.73 70.4271 1065.63 77.0489 1066.3 83.9928C1066.37 84.8348 1066.75 85.6438 1067 86.4674V99.2795L1066.99 99.2756ZM998.963 128.926C1017.81 129.27 1036.35 114.068 1035.39 90.7248C1034.64 72.8395 1020.46 56.8138 999.941 56.4475C979.087 56.078 964.316 73.0811 963.495 90.8601C962.484 112.567 980.511 129.134 998.963 128.926Z" fill="#111111"/>
<path d="M538.932 157.844V26.8821H540.956C557.962 26.8821 574.973 26.7394 591.978 26.915C617.497 27.1823 640.468 42.0439 650.943 66.7013C653.697 73.1873 655.188 80.0216 655.831 87.112C656.479 94.2393 656.009 101.271 654.188 108.05C647.876 131.499 633.317 147.313 610.251 154.938C603.877 157.046 597.313 157.899 590.632 157.899C573.929 157.899 557.224 157.862 540.52 157.844C540.04 157.844 539.561 157.844 538.932 157.844ZM571.929 127.597C578.063 127.597 583.99 127.74 589.906 127.553C595.084 127.392 600.028 126.02 604.592 123.461C612.581 118.981 618.173 112.417 620.921 103.628C622.29 99.2538 622.938 94.7514 622.418 90.0333C621.977 85.9921 621.251 82.0897 619.525 78.4696C613.871 66.5805 604.453 59.669 591.453 58.3736C585.101 57.7402 578.644 58.2014 572.236 58.1757C572.147 58.1757 572.057 58.3076 571.929 58.4139V127.597Z" fill="#111111"/>
<path d="M766.575 76.5765C766.603 84.9919 766.631 93.404 766.659 101.819C766.665 104.316 766.659 106.816 766.659 109.473H709.22V124.884H772.614V158.143H676.199V26.929H772.664V60.0861H709.22V76.2248H711.158C728.839 76.2248 746.515 76.2248 764.19 76.2248C764.855 76.2248 765.519 76.2578 766.184 76.2729C766.318 76.3713 766.441 76.4781 766.575 76.5765Z" fill="#111111"/>
<path d="M343.687 26.8557H376.387V28.8104C376.387 44.4299 376.387 60.0458 376.387 75.6651C376.387 76.3349 376.424 77.0047 376.441 77.6745V78.9559C376.783 78.403 376.9 78.2129 377.016 78.0222C384.583 68.3583 392.154 58.695 399.718 49.0274C405.182 42.0359 410.617 35.0187 416.124 28.0637C416.608 27.4524 417.545 26.8521 418.275 26.8484C431.048 26.7752 443.822 26.7971 456.595 26.7971C456.817 26.7971 457.038 26.7971 457.613 26.7971C439.76 49.6827 422.101 72.3195 404.401 95.0068C423.805 115.908 443.139 136.737 462.662 157.77C461.99 157.829 461.555 157.902 461.115 157.902C447.796 157.909 434.478 157.928 421.16 157.858C420.339 157.854 419.303 157.36 418.733 156.749C405.291 142.36 391.903 127.919 378.498 113.493C378.048 113.006 377.557 112.56 377.088 112.09C376.925 111.871 376.762 111.652 376.441 111.223V112.094C376.424 126.663 376.405 141.232 376.387 155.801C376.387 156.456 376.387 157.111 376.387 157.836H343.495C343.451 157.456 343.36 157.056 343.36 156.657C343.353 113.741 343.353 70.8223 343.357 27.9063C343.357 27.6647 343.386 27.4195 343.4 27.1779C343.495 27.0717 343.589 26.9619 343.687 26.8557Z" fill="#111111"/>
<path d="M889.733 107.361C899.515 111.3 909.134 115.173 918.916 119.108C913.654 131.447 905.704 141.393 894.811 148.908C881.895 157.821 867.387 161.928 851.986 160.625C817.06 157.675 793.932 131.1 789.876 102.101C787.301 83.7104 791.826 67.0367 802.663 52.1129C811.306 40.2016 822.735 31.6909 836.701 27.6644C873.834 16.9501 906.526 36.618 918.776 65.9347C914.425 67.6846 910.067 69.4195 905.727 71.1806C901.051 73.0732 896.375 74.9618 891.722 76.9057C890.191 77.5459 889.37 77.3301 888.509 75.6791C884.135 67.2782 877.46 61.3775 868.533 58.3685C849.634 51.9994 830.193 61.5352 823.121 79.8192C821.205 84.7794 820.21 89.9152 820.752 95.1349C822.216 109.122 829.238 119.349 841.824 125.656C847.606 128.552 853.773 129.584 860.019 128.837C873.125 127.27 883.035 120.674 889.068 108.613C889.252 108.239 889.454 107.877 889.733 107.361Z" fill="#111111"/>
<path d="M478.106 26.8555H510.694V157.814H477.775V156.324C477.775 113.577 477.775 70.8329 477.775 28.0854C477.775 27.7816 477.804 27.4777 477.819 27.1739C477.913 27.0678 478.008 26.9616 478.106 26.8555Z" fill="#111111"/>
<path d="M352.698 175.406C352.174 185.026 351.652 194.642 351.129 204.284H346.656C347.474 192.355 348.287 180.48 349.105 168.536H355.267C358.435 177.925 361.638 187.413 364.897 197.069C365.25 196.162 365.628 195.268 365.947 194.357C368.839 186.062 371.702 177.756 374.641 169.48C374.797 169.033 375.498 168.539 375.981 168.503C377.601 168.382 379.233 168.455 380.893 168.455C381.086 170.022 381.344 171.489 381.434 172.972C381.612 175.93 381.634 178.902 381.842 181.856C382.274 187.976 382.804 194.086 383.254 200.207C383.353 201.524 383.269 202.86 383.269 204.123C383.033 204.229 382.928 204.317 382.826 204.314C377.663 204.281 378.753 205.027 378.528 200.188C378.263 194.467 377.805 188.756 377.496 183.035C377.388 181.029 377.467 179.012 377.46 176.999C377.46 176.116 377.46 175.238 377.46 174.356C377.3 174.323 377.137 174.287 376.977 174.254C376.453 175.633 375.905 177.003 375.415 178.39C373.406 184.063 371.418 189.745 369.413 195.419C368.468 198.094 367.491 200.763 366.547 203.439C366.125 204.636 365.13 204.233 364.291 204.328C363.339 204.434 362.667 204.203 362.347 203.193C360.84 198.457 359.321 193.723 357.784 188.998C356.422 184.814 355.026 180.641 353.657 176.457C353.548 176.124 353.555 175.75 353.508 175.395C353.359 174.689 353.206 173.982 353.058 173.276L352.425 173.412C352.516 174.077 352.607 174.744 352.698 175.406Z" fill="#111111"/>
<path d="M868.622 181.768V178.423H872.84C872.84 181.007 872.862 183.543 872.834 186.08C872.778 192.047 873.024 198.043 872.538 203.977C871.946 211.202 868.845 215.035 860.203 215.672C856.913 215.917 853.863 215.072 850.974 213.523C851.075 213.058 851.159 212.729 851.226 212.392C851.723 209.844 851.773 209.932 854.153 210.891C857.706 212.33 861.371 212.359 864.773 210.489C867.376 209.054 867.795 206.22 868.242 203.559C868.393 202.673 868.264 201.74 868.264 200.44C867.7 200.858 867.331 201.074 867.024 201.359C862.041 206.037 854.89 205.141 851.041 199.456C847.159 193.731 848.22 186.512 851.717 181.856C855.432 176.904 863.952 175.78 868.622 181.761V181.768ZM868.773 191.125L868.264 190.956C868.264 190.041 868.443 189.086 868.231 188.225C867.633 185.806 867.046 183.386 864.365 182.218C861.069 180.784 857.667 181.358 855.606 184.269C854.622 185.656 853.941 187.387 853.55 189.063C852.382 194.024 855.678 202.249 862.51 200.349C864.387 199.825 866.08 199.192 866.817 197.314C867.605 195.308 868.136 193.196 868.778 191.128L868.773 191.125Z" fill="#111111"/>
<path d="M453.685 186.776C453.724 192.2 453.79 197.629 453.743 203.054C453.739 203.486 452.976 204.167 452.467 204.277C451.548 204.478 450.553 204.332 449.427 204.332C449.387 203.738 449.318 203.219 449.318 202.699C449.311 198.614 449.416 194.521 449.27 190.44C449.198 188.43 448.838 186.388 448.29 184.447C447.52 181.731 443.61 180.685 440.966 182.255C438.579 183.675 437.765 185.861 437.761 188.493C437.761 193.068 437.761 197.64 437.761 202.216C437.761 202.813 437.761 203.409 437.761 204.112H433.282C433.282 203.38 433.282 202.67 433.282 201.963C433.282 197.695 433.369 193.42 433.235 189.155C433.188 187.585 432.741 185.989 432.265 184.473C431.654 182.533 430.063 181.849 428.159 181.615C425.754 181.318 424.221 182.621 422.866 184.323C421.711 185.776 421.627 187.511 421.627 189.261C421.627 193.529 421.627 197.801 421.627 202.069V204.123H417.032V181.267C417.566 180.337 417.82 179.436 416.752 178.682C418.006 178.518 419.255 178.357 420.563 178.185C420.799 179.448 420.991 180.484 421.257 181.918C423.342 179.147 426.059 177.628 429.188 177.69C432.363 177.756 435.349 178.788 436.515 182.841C439.745 178.1 443.843 176.859 448.744 178.587C451.977 179.725 452.896 182.595 453.467 185.63C453.539 186.007 453.612 186.384 453.685 186.765V186.776Z" fill="#111111"/>
<path d="M915.458 188.961C915.458 187.252 915.458 185.543 915.458 183.833L915.67 182.654C916.748 175.304 921.301 170.721 927.966 168.711C931.407 167.675 935.351 168.239 939.066 168.283C940.552 168.301 942.038 168.865 943.468 169.172C943.468 169.55 943.502 169.681 943.468 169.795C942.401 173.254 942.401 173.229 938.736 172.324C934.625 171.31 930.597 171.501 926.837 173.609C922.547 176.011 920.48 179.821 920.218 184.708C919.949 189.785 920.961 194.372 925.022 197.834C926.966 199.493 929.122 200.668 931.731 200.627C934.128 200.591 936.541 200.507 938.921 200.25C939.418 200.195 940.194 199.317 940.217 198.794C940.34 195.576 940.278 192.355 940.278 188.969H933.083V185.169H944.809C944.809 186.011 944.809 186.838 944.809 187.666C944.809 192.237 944.842 196.813 944.747 201.385C944.736 201.974 944.178 202.897 943.658 203.084C938.491 204.954 933.117 205.503 927.821 204.098C920.815 202.238 916.603 197.545 915.659 190.143C915.592 189.752 915.525 189.353 915.458 188.961Z" fill="#111111"/>
<path d="M664.015 180.517V166.365H668.557C668.613 166.761 668.702 167.163 668.702 167.566C668.758 179.331 668.791 191.096 668.875 202.857C668.881 204.013 668.456 204.398 667.4 204.336C666.858 204.303 666.238 204.493 665.786 204.288C665.272 204.054 664.641 203.553 664.529 203.062C664.328 202.151 664.473 201.162 664.473 200.379C662.959 201.499 661.585 202.857 659.948 203.662C652.876 207.129 646.25 202.143 644.898 195.796C643.982 191.513 643.96 187.172 646.462 183.255C647.993 180.861 649.842 179.056 652.797 178.24C656.859 177.116 660.194 178.083 663.339 180.557C663.495 180.773 663.652 180.989 663.803 181.209C663.87 180.978 663.948 180.747 664.015 180.517ZM663.881 191.008L663.736 190.993C663.736 189.957 663.758 188.921 663.73 187.885C663.657 184.942 661.618 182.186 659.138 181.644C655.663 180.887 652.244 182.365 650.613 184.818C648.736 187.648 648.999 190.745 649.295 193.724C649.58 196.55 650.932 199.295 653.82 200.306C657.44 201.572 662.546 200.599 663.395 195.661C663.657 194.126 663.724 192.56 663.875 191.012L663.881 191.008Z" fill="#111111"/>
<path d="M1026.42 178.634C1027.76 178.491 1029.09 178.349 1030.61 178.188V182.255C1031.36 181.749 1031.87 181.552 1032.18 181.178C1036.84 175.49 1047.87 176.819 1050.24 184.85C1051.67 189.7 1051.56 194.652 1049.18 199.235C1047.7 202.091 1045.13 203.639 1041.94 204.357C1037.95 205.257 1034.64 204.349 1031.64 200.941V214.811H1026.69V179.44C1026.6 179.172 1026.52 178.901 1026.42 178.634ZM1038.77 181.621C1036.16 181.339 1034.35 182.781 1032.83 184.828C1031.02 187.258 1031.48 190.074 1031.39 192.815C1031.31 195.333 1032.03 197.394 1033.92 199.199C1036.83 201.992 1042.15 201.593 1044.43 198.255C1046.74 194.861 1047.21 191.135 1046.05 187.324C1045.01 183.894 1042.88 181.45 1038.77 181.621Z" fill="#111111"/>
<path d="M465.384 200.484C465.384 201.088 465.316 201.699 465.399 202.292C465.621 203.881 465.033 204.382 463.412 204.397C461.679 204.415 461.181 203.845 461.338 202.172C461.545 199.997 461.625 197.805 461.632 195.616C461.661 185.919 461.647 176.226 461.647 166.398H466.278V181.885C466.783 181.464 467.059 181.285 467.27 181.05C470.231 177.749 473.889 176.995 478.013 178.137C482.282 179.319 484.52 182.266 485.413 186.578C486.122 190.004 485.914 193.306 485.025 196.629C483.339 202.937 476.636 206.033 470.925 204.254C469.468 203.8 468.269 202.461 466.991 201.476C466.551 201.14 466.227 200.649 465.85 200.232C465.693 200.316 465.541 200.4 465.384 200.484ZM465.686 191.256C465.831 191.293 465.981 191.329 466.126 191.362C465.94 194.349 466.435 196.992 468.799 199.192C472.77 202.886 478.242 200.455 479.866 197.161C481.351 194.148 481.719 191.069 480.967 187.815C480.251 184.707 478.547 182.302 475.394 181.684C472.029 181.025 468.923 181.958 467.339 185.355C466.489 187.178 466.22 189.28 465.686 191.256Z" fill="#111111"/>
<path d="M751.922 168.295H771.045V172.164H756.537V183.457H770.028C770.19 184.599 770.452 185.547 770.38 186.466C770.352 186.799 769.531 187.319 769.067 187.33C765.559 187.403 762.045 187.37 758.542 187.37C757.939 187.37 757.341 187.37 756.598 187.37V200.255H771.894V204.113H751.934V168.295H751.922Z" fill="#111111"/>
<path d="M710.678 204.335C708.617 204.335 707.013 204.665 705.645 204.229C704.594 203.893 703.712 202.696 702.991 201.704C700.673 198.505 698.461 195.225 696.114 191.85C694.578 193.145 693.41 194.357 693.589 196.575C693.79 199.043 693.634 201.539 693.634 204.124H689.07V166.343H693.656V189.851C696.673 186.271 699.399 183.163 701.963 179.92C702.941 178.687 703.952 178.145 705.483 178.317C706.494 178.43 707.533 178.339 709.013 178.339C705.661 181.952 702.544 185.309 699.271 188.841C702.913 193.79 706.639 198.849 710.672 204.332L710.678 204.335Z" fill="#111111"/>
<path d="M570.448 189.844C570.247 196.173 568.773 200.526 564.091 203.088C560.644 204.973 556.928 205.423 553.237 204.087C549.135 202.601 546.868 199.362 545.514 195.251C543.672 189.658 546.367 181.469 552.18 178.878C557.113 176.681 562.695 177.479 566.717 180.88C568.532 182.417 570.633 186.982 570.448 189.844ZM550.019 190.694C550.019 191.905 549.993 192.7 550.022 193.49C550.149 196.869 553.647 200.947 556.79 201.393C559.259 201.745 563.125 199.607 564.236 197.125C565.845 193.509 566.275 189.881 564.594 186.063C562.22 180.679 556.1 179.555 552.122 183.936C550.276 185.972 549.724 188.424 550.019 190.694Z" fill="#111111"/>
<path d="M991.444 191.011C991.489 197.636 988.338 202.596 982.065 204.287C975.618 206.026 969.696 203.53 966.998 196.725C964.25 189.81 967.099 181.552 973.249 178.865C978.249 176.679 983.204 177.196 987.422 180.717C990.495 183.287 991.422 187.053 991.444 191.011ZM987.02 191.047C986.556 189.473 986.037 187.914 985.646 186.322C984.919 183.357 982.841 181.914 980.082 181.42C977.551 180.966 975.238 181.574 973.395 183.565C972.132 184.927 971.59 186.556 971.093 188.328C969.875 192.683 971.618 198.478 976.015 200.634C977.104 201.169 978.618 201.48 979.735 201.169C984.539 199.825 986.31 196.564 987.02 191.047Z" fill="#111111"/>
<path d="M733.141 202.502V204.139C729.275 204.797 729.068 204.68 728.61 201.781C726.705 202.656 724.806 203.802 722.75 204.413C719.063 205.511 715.661 204.069 713.639 200.921C712.136 198.585 712.466 194.237 714.678 191.835C716.382 189.99 718.594 188.764 721.175 188.435C722.7 188.241 724.225 187.937 725.755 187.875C728.079 187.78 728.778 186.765 727.85 184.54C726.633 181.593 724.767 180.711 720.705 181.341C719.437 181.539 718.225 182.109 716.957 182.373C716.465 182.476 715.46 182.241 715.443 182.095C715.365 181.22 714.024 180.103 715.583 179.463C717.041 178.866 718.594 178.485 720.124 178.105C722.711 177.457 725.242 177.841 727.767 178.588C730.867 179.507 731.794 182.095 732.638 184.782C732.699 185.078 732.761 185.374 732.828 185.671C732.889 190.013 732.956 194.357 733.023 198.699C733.035 199.724 733.074 200.752 733.096 201.778C733.113 202.019 733.124 202.261 733.141 202.502ZM728.32 191.012C726.158 191.191 724.152 191.136 722.253 191.565C718.812 192.341 716.795 195.071 717.611 198.033C718.085 199.742 719.292 201.002 721.013 201.331C723.275 201.766 725.253 200.837 726.772 199.164C728.822 196.898 728.431 194.076 728.325 191.016L728.32 191.012Z" fill="#111111"/>
<path d="M879.946 216.06C879.465 214.859 878.957 213.786 878.633 212.659C878.56 212.414 879.063 211.803 879.42 211.659C882.593 210.371 884.873 208.065 886.264 205.03C886.761 203.943 886.677 202.285 886.241 201.121C884.091 195.356 881.728 189.671 879.443 183.957C878.722 182.156 878.013 180.352 877.242 178.411H882.348C884.722 184.946 887.096 191.476 889.588 198.321C890.543 195.429 891.409 192.863 892.247 190.282C893.392 186.728 894.465 183.148 895.694 179.626C895.889 179.074 896.716 178.499 897.325 178.397C898.492 178.203 899.716 178.342 901.163 178.342C900.045 181.358 899.045 184.199 897.95 187.002C895.442 193.449 893.034 199.946 890.303 206.297C888.319 210.899 885.079 214.442 879.946 216.06Z" fill="#111111"/>
<path d="M494.49 192.255C494.326 197.225 497.927 201.036 502.784 201.033C504.052 201.033 505.349 201.19 506.584 200.993C507.786 200.802 508.931 200.246 510.246 199.803C510.319 200.143 510.377 200.403 510.428 200.667C510.951 203.364 510.991 203.727 508.281 204.056C504.956 204.462 501.411 204.799 498.213 204.056C493.883 203.049 491.235 199.722 490.261 195.213C489.109 189.872 490.138 185.121 493.782 180.973C497.592 176.632 506.966 176.844 509.952 181.204C512.135 184.392 512.618 187.946 512.124 191.951H494.802C494.697 192.05 494.588 192.148 494.483 192.247L494.49 192.255ZM494.468 188.287C494.9 188.393 495.184 188.521 495.467 188.525C499.565 188.539 503.667 188.532 507.747 188.532C508.102 184.791 506.261 181.76 503.449 181.284C498.657 180.468 496.154 182.382 494.468 188.287Z" fill="#111111"/>
<path d="M799.92 186.043C799.937 191.406 799.887 196.772 800.01 202.131C800.054 203.921 799.507 204.584 797.764 204.346C797.055 204.25 796.323 204.331 795.401 204.331C795.367 203.577 795.317 202.929 795.317 202.281C795.306 198.075 795.44 193.862 795.245 189.663C795.161 187.815 794.742 185.823 793.904 184.198C792.591 181.647 789.239 180.849 786.647 182.093C783.714 183.503 782.597 185.996 782.597 189.14C782.608 193.467 782.597 197.797 782.597 202.124C782.597 202.724 782.597 203.324 782.597 204.068H777.927V178.414H781.72C781.809 179.597 781.888 180.702 782.01 182.393C784.049 179.813 786.15 178.426 788.915 177.844C793.233 176.932 797.468 179.004 798.893 183.115C799.149 183.843 799.44 184.553 799.714 185.274C799.781 185.53 799.848 185.783 799.909 186.039L799.92 186.043Z" fill="#111111"/>
<path d="M809.842 192.256C809.685 197.209 813.3 201.122 818.121 200.997C820.585 200.935 823.037 200.5 825.646 200.218C825.746 200.554 825.953 201.151 826.104 201.766C826.383 202.912 825.869 203.728 824.791 203.907C821.389 204.471 818.009 205.229 814.512 204.384C810.009 203.292 807.183 200.481 805.859 196.107C804.535 191.732 805.01 187.519 807.283 183.533C808.937 180.634 811.244 178.602 814.613 178.093C818.702 177.478 822.64 177.662 825.406 181.366C827.702 184.441 827.836 188.043 827.523 191.956C821.713 191.956 815.931 191.956 810.155 191.956C810.049 192.054 809.942 192.157 809.842 192.256ZM809.987 188.401H823.115C823.439 184.639 821.545 181.681 818.59 181.285C814.166 180.693 810.674 182.735 809.987 188.401Z" fill="#111111"/>
<path d="M393.547 194.049C393.449 196.867 395.236 198.591 397.275 199.927C400.333 201.934 403.683 201.11 406.957 200.414C407.585 200.279 408.195 200.056 408.878 199.854C409.216 200.919 409.532 201.915 409.845 202.9C403.726 205.707 395.418 206.07 390.76 199.532C388.679 196.607 388.49 193.126 388.744 189.67C389.097 184.861 391.175 180.841 395.625 178.931C397.889 177.957 400.755 177.979 403.298 178.184C409.06 178.652 410.582 184.1 411.211 188.199C411.382 189.323 411.236 190.498 411.236 191.955H393.816C392.392 192.478 393.035 193.273 393.547 194.049ZM393.853 188.466H406.695C406.629 187.723 406.619 187.083 406.51 186.457C405.674 181.661 400.446 179.271 396.853 182.042C394.946 183.51 393.7 185.395 393.442 187.859L393.184 188.386C393.409 188.415 393.627 188.437 393.853 188.466Z" fill="#111111"/>
<path d="M616.195 178.682C617.575 178.521 618.955 178.36 620.592 178.17V182.16C621.391 181.391 621.871 180.948 622.329 180.48C625.497 177.24 630.692 176.815 634.418 179.143C635.809 180.011 637.033 181.731 637.524 183.316C638.262 185.677 638.491 188.258 638.58 190.755C638.736 195.18 638.625 199.617 638.625 204.13H633.96C633.96 200.341 634.005 196.645 633.943 192.951C633.91 190.773 633.837 188.576 633.535 186.424C633.161 183.77 631.323 182.006 628.96 181.658C626.273 181.263 623.513 182.68 622.234 184.788C621.324 186.281 621.262 187.83 621.257 189.448C621.257 193.716 621.257 197.98 621.257 202.248C621.257 202.842 621.257 203.435 621.257 204.126H616.48V180.908L616.195 178.682Z" fill="#111111"/>
<path d="M1018.97 178.717V204.084H1015.2C1015.12 203.576 1015.05 203.048 1014.97 202.521C1015.09 201.866 1015.42 201.17 1015.3 200.57C1015.11 199.648 1014.63 199.75 1014.3 200.578C1011.52 204.201 1006.82 205.922 1002.7 204.168C1000.96 203.429 999.45 201.555 998.439 199.838C997.601 198.407 997.388 196.448 997.349 194.717C997.221 189.248 997.299 183.776 997.299 178.19H1001.92C1001.92 182.71 1001.85 187.202 1001.95 191.69C1002 193.578 1002.2 195.515 1002.7 197.334C1003.5 200.325 1006.92 201.522 1009.75 200.394C1013.29 198.982 1014.35 196.291 1014.36 192.835C1014.38 188.139 1014.37 183.443 1014.39 178.746C1014.39 178.64 1014.48 178.538 1014.55 178.406H1018.68L1018.97 178.717H1018.97Z" fill="#111111"/>
<path d="M587.738 178.715V181.603H581.755V204.079H576.917V181.995C576.588 181.76 576.275 181.38 575.917 181.329C575.113 181.207 574.28 181.248 573.465 181.223V178.192H576.9C576.66 173.718 577.47 169.71 581.325 167.144C583.939 165.405 586.872 165.654 590.045 166.375C589.889 167.539 589.738 168.682 589.576 169.908C588.52 169.908 587.548 169.995 586.604 169.893C583.364 169.534 582.012 172.038 581.638 174.699C581.52 175.515 581.286 176.376 581.442 177.145C581.543 177.617 582.258 178.239 582.749 178.29C584.297 178.455 585.878 178.382 587.442 178.404C587.543 178.51 587.643 178.612 587.744 178.718L587.738 178.715Z" fill="#111111"/>
<path d="M603.788 203.965C603.749 201.535 603.682 199.104 603.676 196.674C603.665 187.303 603.676 177.928 603.676 168.389H608.207C608.235 168.938 608.291 169.578 608.291 170.215C608.302 180.695 608.296 191.172 608.296 201.652C608.296 203.443 607.402 204.335 605.609 204.328C605.129 204.328 604.643 204.291 604.168 204.273C604.039 204.17 603.911 204.068 603.788 203.965Z" fill="#111111"/>
<path d="M518.464 178.693C519.714 178.528 520.964 178.367 522.264 178.195C522.508 179.736 522.711 181.054 522.984 182.793C524.975 179.301 527.485 177.331 531.391 177.65V181.673C530.021 182.046 528.637 182.298 527.347 182.807C525.138 183.678 523.561 186.358 523.558 188.811C523.554 193.324 523.445 197.837 523.518 202.351C523.543 203.87 523.097 204.481 521.592 204.349C520.753 204.276 519.903 204.335 518.718 204.335V181.654C519.235 180.614 519.634 179.582 518.464 178.693Z" fill="#111111"/>
<path d="M833.813 178.689C835.176 178.524 836.545 178.363 838.237 178.162V182.277C840.405 179.253 842.891 177.335 846.734 177.642V181.793C845.695 181.984 844.606 182.149 843.528 182.393C841.075 182.946 838.79 186.372 838.885 189.103C839.036 193.664 838.88 198.24 838.846 202.808C838.846 203.218 838.774 203.628 838.729 204.13H834.092V181.643C834.55 180.607 834.997 179.571 833.813 178.689Z" fill="#111111"/>
<path d="M951.161 178.69C952.524 178.526 953.892 178.364 955.585 178.163V182.281C957.758 179.258 960.233 177.328 964.082 177.643V181.941C961.931 181.835 959.719 182.168 958.384 184.057C957.412 185.426 956.434 187.139 956.356 188.742C956.093 193.827 956.261 198.933 956.261 204.127H951.44V181.641C951.909 180.601 952.323 179.569 951.161 178.69Z" fill="#111111"/>
<path d="M680.796 204.143H676.394V178.175H680.796V204.143Z" fill="#111111"/>
<path d="M678.294 173.949C676.573 173.938 675.702 172.983 675.724 171.127C675.746 169.326 676.646 168.459 678.512 168.451C680.556 168.444 681.634 169.322 681.428 171.2C681.188 173.313 680.69 174.048 678.288 173.946L678.294 173.949Z" fill="#111111"/>
<path d="M573.459 181.22C574.281 181.246 575.113 181.205 575.917 181.326C576.275 181.381 576.588 181.762 576.917 181.993C576.018 182.003 575.113 182.076 574.23 181.989C573.945 181.96 573.716 181.491 573.459 181.22Z" fill="#111111"/>
<path d="M951.161 178.691C952.328 179.569 951.909 180.605 951.44 181.641C951.351 180.657 951.256 179.672 951.161 178.691Z" fill="#111111"/>
<path d="M833.813 178.691C834.997 179.569 834.556 180.605 834.092 181.645C833.997 180.661 833.908 179.676 833.813 178.691Z" fill="#111111"/>
<path d="M518.465 178.694C519.636 179.584 519.24 180.612 518.723 181.652C518.636 180.667 518.552 179.682 518.465 178.694Z" fill="#111111"/>
<path d="M1014.29 200.577C1014.63 199.749 1015.11 199.647 1015.3 200.569C1015.42 201.173 1015.09 201.869 1014.97 202.52C1014.74 201.872 1014.52 201.225 1014.29 200.577H1014.29Z" fill="#111111"/>
<path d="M352.696 175.406C352.605 174.739 352.51 174.073 352.419 173.41L353.052 173.275C353.202 173.982 353.355 174.688 353.504 175.395L352.696 175.406Z" fill="#111111"/>
<path d="M416.752 178.694C417.821 179.448 417.567 180.349 417.032 181.278C416.937 180.418 416.846 179.554 416.752 178.694Z" fill="#111111"/>
<path d="M393.549 194.049C393.037 193.273 392.393 192.475 393.823 191.955C393.732 192.654 393.64 193.354 393.549 194.049Z" fill="#111111"/>
<path d="M664.015 180.515C663.948 180.746 663.875 180.977 663.808 181.207C663.651 180.991 663.495 180.775 663.344 180.556L664.015 180.515Z" fill="#111111"/>
<path d="M799.92 186.043C799.853 185.786 799.786 185.534 799.725 185.278L799.92 186.043Z" fill="#111111"/>
<path d="M377.016 78.0267C376.9 78.2168 376.779 78.4075 376.441 78.9598V77.679C376.634 77.7958 376.824 77.9099 377.016 78.0267Z" fill="#111111"/>
<path d="M376.441 112.095V111.224C376.762 111.653 376.925 111.872 377.089 112.092C376.874 112.092 376.656 112.095 376.441 112.095Z" fill="#111111"/>
<path d="M603.788 203.967C603.911 204.069 604.034 204.172 604.162 204.275C604.039 204.172 603.917 204.069 603.788 203.967Z" fill="#111111"/>
<path d="M393.44 187.859C393.578 188.064 393.716 188.265 393.854 188.47C393.629 188.441 393.407 188.415 393.182 188.386L393.44 187.859Z" fill="#111111"/>
</g>
<defs>
<clipPath id="clip0_18_58">
<rect width="1067" height="246" fill="#111111"/>
</clipPath>
</defs>
</svg>
